/* XPM */
static char *result[] = {
/* columns rows colors chars-per-pixel */
"64 64 22 1 ",
"  c #D74000",
". c #DB4600",
"X c #DD4B00",
"o c #DF5000",
"O c #E15400",
"+ c #E55C00",
"@ c #E76100",
"# c #E86500",
"$ c #E96901",
"% c #E86709",
"& c #E96C0B",
"* c #EA710E",
"= c #E96E11",
"- c #EA7214",
"; c #EA751B",
": c #EB791E",
"> c #EA7721",
", c #EB7C25",
"< c #EC7E28",
"1 c #EC8026",
"2 c #EC812A",
"3 c None",
/* pixels */
"3333333333333333333333333333333333333333333333333333333333333333",
"3333333333333333333333333333333333333333333333333333333333333333",
"3333333333333333333333333333333333333333333333333333333333333333",
"3333333333333333333333333333333333333333333333333333333333333333",
"3333333333333333333333333333333#33333333333333333333333333333333",
"3333333333333333333333333333####$:<33333333333333333333333333333",
"333333333333333333333333333#####%;<,3333333333333333333333333333",
"33333333333333333333333333#$#####;,-#333333333333333333333333333",
"33333333333333333333333333$#$###@;-%#333333333333333333333333333",
"33333333333333333333333333$#####+&###333333333333333333333333333",
"3333333333333333####-23,3--;-&$$####+#+#+##XXO+oXX33333333333333",
"333333333###$##$$#%&=122222<,&#####@#####+#O.XOXXX++++++##333333",
"33333333##+###$##&,,,<2<222-&#$$$$#####++##+oXXX..XX.Xo##+#33333",
"33333333$+##$$$$$$:,<,2<<22,&#$$$######+++++OXXX..XXXO+#+###3333",
"33333333#####$$$$$#&-,<<212<,=##########OXXXX.XXXXXX++##$###3333",
"33333333++####$$$###-,,,<>-;,:%####@##+##+XoXXX.XXXXX+##$#$$3333",
"333333333##+####$#$$>2--,,&$$%###$+##$$$$$#+XXXXXXXXXXO##$$33333",
"3333333333333333333333332:$#####++####$$$$$#OXXX.XooXXXO#$333333",
"3333333333333333333333333;##$###$#####$3333333333333333333333333",
"3333333333333333333333333&$$#######$$$33333333333333333333333333",
"3333333333333333333333333$$$$$##+#$$#$#+#+##+###+X+3333333333333",
"333333333333#$#$#$$#$$$###$$##$@########@###$#$$#X++#$#333333333",
"33333333XX+##$###$$##$##@@#+oO#######+##$###$#$$$######$33333333",
"3333333XXXXO#$###$$###$####OXX+#+##OOX+#####$$$##$$$$#%%33333333",
"3333333XXXXXO#####$##$$####OXXo@#+XXXX+####$##$##$$$$%:>%3333333",
"3333333XXX XX+#@##$#####$##+XXX+OX...o#+@##$$##+###$#&,2-3333333",
"333333XX+XXXXX+#####$######+XXXoX..Xo++#@#$$#####;>*#&,<-3333333",
"333333.X+#+OOX+###$##+oXoO++oXXXX...O$++##$#$###+;2>-&,<>3333333",
"333333 XO####+####$$#+XX..XXXXXXXXXo+#+@####$####%>2<:<2,3333333",
"333333XXO#####$##3333333333333333333333333333333#+=2<2<<,3333333",
"333333XXX#####$#3333333+XX3333333333.XXo333333333;:,2<<2<2333333",
"333333#OO$$#$$#$333333##+XXX333333X..XoO#33333333<,,,<<,,2333333",
"333333#$#$$$##$#33333#$#++o.X3333XXO+++$##3333333,,,<<<<,,333333",
"333333$$#$##$##$33333#$++XXXXX33XXXO+#$$##3333333=;,,<<<<<333333",
"333333$$#$#$$##$33333$$+XXX..X33. ..XO###33333333+=,,2,221333333",
"33333$$$$#$$##$$333333OX.  .XXXX ..XX.O##33333333%>,,:122>333333",
"33333$$%;&$#$&;&333333oXX .Xo..XOXXX.XX+#333333333<2;#:22;333333",
"33333$$%,:&#%,,3333$#OXoO++#+..X+#++OXOO$#$33333332:%#*22;333333",
"33333$$$:2,&;<,33$$$#+++##+#XX.o##$$###########333&$###-2-333333",
"33333$$$-2<,,<:33&$$$$$+####..X+##$$$$#######@@333%##+#%:%333333",
"33333$&$*,1222,33,-###+$####X O$###$$####++##+O333#$####&$333333",
"33333&11:222222331=#$##$#$#$+O++#############OX333$$######333333",
"33333$:12222,<2333$######+###++####$##$+##++#O3333$++###$##33333",
"33333$$*:122,<23333##3###+#########$$#$@+#OX333333OO##+####33333",
"33333$$$$,22<<2333333333333$$$#$####33333333333333O##@@##$#33333",
"33333$$$*22::<;333333333333$$#$####333333333333333#+###@##333333",
"33333#$$*<,*:2-3333#@###$##$##$###########O3333333++@####$333333",
"33333##$;<=#:2-333$###$$$$#$##$+O+######$OXXXX3333X+#######33333",
"33333$$#*%+#%:*333##$#$$$$$###$OX+$+####$OXOo.3333OO#######33333",
"33333$##+##@@%%333###$##$$+++$+o.O$###$$##+#oo3333$$#$##$+$33333",
"33333$#@$####$#3333$#$$#$$OXX++oXX+##+#$###+o33333$#$###$$$33333",
"33333$#####@@+$33333#$###$+XXX+oX.O+OOO#$+$+O33333$#$#+####33333",
"33333$#####@@##3333333$#+#$+oXXXX.X.XX.+#$$333333$$$$+####$33333",
"33333#$$@@@+@##333333333333+XXXXX..X333333333333#$%#####%##33333",
"333333+@@@+Oo++333333333333XXXXXXXXX3333333333+##;>=###&>:&33333",
"333333.o@+X.XO3333333333333XXXoXX.XX333333333+##%><=#$%,2,&33333",
"333333X.OX ..+3333333333333OoXXXo.oo333333333$##=<<:#-,<<;$33333",
"333333......O#3333333333333+oooXX.Xo333333333$#$%<<:-<<2,*333333",
"333333.X....++33333333333333XXoX..o3333333333$#+%<2<2222:#333333",
"333333X......X33333333333333XX+o.Xo3333333333&&=-<22222,&$333333",
"3333333XX.XX.333333333333333X+#+ooX33333333333222222222<-3333333",
"3333333X...3333333333333333333##O333333333333322222<<22233333333",
"3333333333333333333333333333333333333333333333332222223333333333",
"3333333333333333333333333333333333333333333333333333333333333333"
};
