/* XPM */
static char *result[] = {
/* columns rows colors chars-per-pixel */
"64 64 30 1 ",
"  c #74A609",
". c #77A809",
"X c #7BAC0A",
"o c #7FB00B",
"O c #80AF0B",
"+ c #84B20C",
"@ c #89B60D",
"# c #8DBA0E",
"$ c #92BD0F",
"% c #94BF10",
"& c #96C00F",
"* c #99C30F",
"= c #96C110",
"- c #9DC511",
"; c #9FC812",
": c #9EC61A",
"> c #A0C712",
", c #A1C813",
"< c #A0C719",
"1 c #A3C91B",
"2 c #A5CA23",
"3 c #A9CD26",
"4 c #A6CB29",
"5 c #AACD2B",
"6 c #ACCF34",
"7 c #AED036",
"8 c #AFD038",
"9 c #B0D135",
"0 c #B1D239",
"q c None",
/* pixels */
"qqqqqqqqqqqqqqqqqqqqqqqqqqqqqqqqqqqqqqqqqqqqqqqqqqqqqqqqqqqqqqqq",
"qqqqqqqqqqqqqqqqqqqqqqqqqqqqqqqqqqqqqqqqqqqqqqqqqqqqqqqqqqqqqqqq",
"qqqqqqqqqqqqqqqqqqqqqqqqqqqqqqqqqqqqqqqqqqqqqqqqqqqqqqqqqqqqqqqq",
"qqqqqqqqqqqqqqqqqqqqqqqqqqqqqqqqqqqqqqqqqqqqqqqqqqqqqqqqqqqqqqqq",
"qqqqqqqqqqqqqqqqqqqqqqqqqqqqqqqqqqqqqqqqqqqqqqqqqqqqqqqqqqqqqqqq",
"qqqqqqqqqqqqqqqqqqqqqqqqqqqqqqqqqqqqqqqqqqqqqqqqqqqqqqqqqqqqqqqq",
"qqqqqqqqqqqqqqqqqqqqqqqqqqqqqqqqqqqqqqqqqqqqqqqqqqqqqqqqqqqqqqqq",
"qqqqqqqqqqqqXX@--=---,--------qqqqqqqqqqqqqqq-q-->,qqqqqqqqqqqqq",
"qqqqqqqqqq--@.@----*-----21>------584*<65;=->----,,;--qqqqqqqqqq",
"qqqqqqqqq,-,-#-,>-----;-;65;----,-45,--:2--;>--$+-,,,,-qqqqqqqqq",
"qqqqqqqqq,-----------162<66<-------,-&-&---%%>-@.=,,--;qqqqqqqqq",
"qqqqqqqq---,-*>-,,,,--476663551-------&-%%-#O#-+X@,,,,,qqqqqqqqq",
"qqqqqqqq--,,,,,,,,-,11360688862------,---%-%.X#O.+###%-qqqqqqqqq",
"qqqqqqqq@$,,,,,-,-,16868068851,>->--,,,-----@..X.XXXXX=qqqqqqqqq",
"qqqqqqqqX@,,,,,,>-,,<4908888061,,,,-,-->-#++O...X.X+#$-qqqqqqqqq",
"qqqqqqqqX+,,,,,,,>>>,,2686669971,,---;;>-+..X..XXX.o%,,qqqqqqqqq",
"qqqqqqqqqo--,>,,,--->;303664,362,-*-,>,---@+X..XXX..X$-qqqqqqqqq",
"qqqqqqqqqq---$#--,->>-691303qqqq**,,->--**-&@.XXX.X.Xqqqqqqqqqqq",
"qqqqqqqqqqqqqqqqqqqqq,11,,5qqqqqq,,--,,,--qqqqqqqqqqqqqqqqqqqqqq",
"qqqqqqqqqqqqqqqqqqqqq,,*,,<qqqqqq;,,,,,,--qqqqqqqqqqqqqqqqqqqqqq",
"qqqqqqqqqqqqqqqqqqqqq,-->,>qqqqqqq,,,,,,--qqqqqqqqqqqqqqqqqqqqqq",
"qqqqqqqqqqqqqqqqqqqqq,>>>,,qqqqqqq;;;,,,-,qqqqqqqqqqqqqqqqqqqqqq",
"qqqqqqqqqqqqqqqqqqqqq,-,>,,>qqqqq--,,;-&--qqqqqqqqqqqqqqqqqqqqqq",
"qqqqqqqqqqqqqq@-,--,,*-->,,,-O.O----@+o$---,---,,,qqqqqqqqqqqqqq",
"qqqqqqqqqqqXXX+%-*--&--,-,,,-X.X$,$+..+----,-**,,-,-qqqqqqqqqqqq",
"qqqqqqqqqqooX..X$-*----;->-->+X.@%OX..#---,,--,,-1,--qqqqqqqqqqq",
"qqqqqqqqqq+$++..+*---;-*&--->#..XXXX.+---,,,--,,,562;qqqqqqqqqqq",
"qqqqqqqqq.X->-#+$------#XX++++X..XX.O*,-,,---->>;3774qqqqqqqqqqq",
"qqqqqqqqq..$>--->--=*--$XX....XXXXXX@$%#&-;-,;----5765qqqqqqqqqq",
"qqqqqqqqqX @->-->---&--*#X. .X.XXXXXXXX.X$---,11:24888qqqqqqqqqq",
"qqqqqqqqq#X+->-,--*------$+....XX.XXX.XX@-----30086866qqqqqqqqqq",
"qqqqqqqq---*-----------*--*+XXXXXXX.++@---qqq&:6808877qqqqqqqqqq",
"qqqqqqqq,,,-*--**-qqqq*---#+XqqqqqXo@=---qqqqq-,436668qqqqqqqqqq",
"qqqqqqqq,,,--*---qqqqq-,-$XXXqqqqqXXX+#--qqqqqq-$&2866qqqqqqqqqq",
"qqqqqqqq,,,;---,,qqqqq,-@oXXqqqqqqX.X .#-qqqqqq-%=5764qqqqqqqqqq",
"qqqqqqqq-;$@*-,-qqqqq,,#XX..qqqqqq@+.  X-qqqqqq-=2764:qqqqqqqqqq",
"qqqqqqqq-;&.+*,$qqqqq,-+++++qqqqqq-&#X.+&qqqqq**-464;-qqqqqqqqqq",
"qqqqqqqq---+X+$Xqqqq---*&--*qqqqqq*---=-->-------;1,;;qqqqqqqqqq",
"qqqqqqqq--,#XXXXXqqq$;->-;-qqqqqqq---=---->,->*----,;-qqqqqqqqqq",
"qqqqqqqq-$$$+X..Xqqq@>,----qqqqqqqq--------*-*+$-,,-;;qqqqqqqqqq",
"qqqqqqqq-+XooXXXXqq@-,;---qqqqqqqqq--->,>,,*-$.#->,-,,qqqqqqqqqq",
"qqqqqqqq-$+XXXoo+qq----;,-qqqqqqqqqq----,-&@$@.@-$#-,-qqqqqqqqqq",
"qqqqqqqq,,-&+XooXqq#-,-,,qqqqqqqqqqqq---;--X++XXX.+--,qqqqqqqqqq",
"qqqqqqqq,,,-+o+XXqq+=--;qqqqqqqqqqqqqqqq--;@.X.X.+&---qqqqqqqqqq",
"qqqqqqqq,,,$.+$XoqqqqqqqqqqqqqqqqqqqqqqqqqqqqqXX+&>>--qqqqqqqqqq",
"qqqqqqqq,,>+X$-X+qqqqqqqqqqqqqqqqqqqqqqqqqqqqq.XXX+$--qqqqqqqqqq",
"qqqqqqqq>--#$--@+qqqqqqqqqqqqqqqqqqqqqqqqqqqqq .X+o$--qqqqqqqqqq",
"qqqqqqqq>>---,--$qqqqqqqqqqqqqqqqqqqqqqqqqqqqqX.O&----qqqqqqqqqq",
"qqqqqqqq>---,-----qqqqqqqqqqqqqqqqqqqqqqqqqqqq$XX--&*=qqqqqqqqqq",
"qqqqqqqq,-->,--*,;,,qqqqqqqqqqqqqqqqqqqqqqq>---+@--*-*qqqqqqqqqq",
"qqqqqqqq-----,,>,-,,-,,->-,--+XXXX+XX..+--------------qqqqqqqqqq",
"qqqqqqqq@=,--,,>,-->,,---&#+@+.XXXXXXX+$-,,----=-<1---qqqqqqqqqq",
"qqqqqqqq.+=->$++=,-;,,--,#X.XXXXXXoXX#>--,------,602-;qqqqqqqqqq",
"qqqqqqqq..+-#..X&,,-,,->,-@X..XXXXXo..@---------1603,1qqqqqqqqqq",
"qqqqqqqqq..+X.X$--*-->-,,-,-$+XXXXX. .X+=--=----:78319qqqqqqqqqq",
"qqqqqqqqqqXX..@=*-,;->-->,,,-+XX...+@X..+=------28066qqqqqqqqqqq",
"qqqqqqqqqqq...XX+@#----,,,,,$X.@+X.@,=###-----;;1000qqqqqqqqqqqq",
"qqqqqqqqqqqqqqqqqqqqqqqqqqqqqqqqqqqqqqqqqqqqqqqqqqqqqqqqqqqqqqqq",
"qqqqqqqqqqqqqqqqqqqqqqqqqqqqqqqqqqqqqqqqqqqqqqqqqqqqqqqqqqqqqqqq",
"qqqqqqqqqqqqqqqqqqqqqqqqqqqqqqqqqqqqqqqqqqqqqqqqqqqqqqqqqqqqqqqq",
"qqqqqqqqqqqqqqqqqqqqqqqqqqqqqqqqqqqqqqqqqqqqqqqqqqqqqqqqqqqqqqqq",
"qqqqqqqqqqqqqqqqqqqqqqqqqqqqqqqqqqqqqqqqqqqqqqqqqqqqqqqqqqqqqqqq",
"qqqqqqqqqqqqqqqqqqqqqqqqqqqqqqqqqqqqqqqqqqqqqqqqqqqqqqqqqqqqqqqq",
"qqqqqqqqqqqqqqqqqqqqqqqqqqqqqqqqqqqqqqqqqqqqqqqqqqqqqqqqqqqqqqqq"
};
