/* XPM */
static char *result[] = {
/* columns rows colors chars-per-pixel */
"64 64 28 1 ",
"  c #ED8237",
". c #EE863A",
"X c #EF8A3D",
"o c #F08E3D",
"O c #F1933E",
"+ c #F29A3E",
"@ c #F6A73E",
"# c #F6A83F",
"$ c #EF8D40",
"% c #F08E40",
"& c #F19440",
"* c #F39C41",
"= c #F5A442",
"- c #F7AD44",
"; c #F7AF49",
": c #F7B047",
"> c #F8B147",
", c #F7B14A",
"< c #F8B249",
"1 c #F7B453",
"2 c #F8B554",
"3 c #F7B65B",
"4 c #F8B75A",
"5 c #F8B95E",
"6 c #F8BC63",
"7 c #F9BF68",
"8 c #F9C069",
"9 c None",
/* pixels */
"9999999999999999999999999999999999999999999999999999999999999999",
"9999999999999999999999999999999999999999999999999999999999999999",
"9999999999999999999999999999999999999999999999999999999999999999",
"99999999999999999999999999999->-->--<999999999999999999999999999",
"9999999999999999999999999999-----<--;699999999999999999999999999",
"999999999999999999999999999---#-:---,699999999999999999999999999",
"999999999999999999999999999-,-=-----<699999999999999999999999999",
"99999999999999999999999999915-------;649999999999999999999999999",
"99999999999999999999999999936:------->-9999999999999999999999999",
"99999999999999999999999999956211,::----9999999999999999999999999",
"9999999999999999:-::-::<256766665::----------;=o.oXXX99999999999",
"999999999-*-<<<:<:---;5656666661;:->----#----;-*X.X.XXXXo9999999",
"99999999-&X=-:::------1666666662,:----------==**X.XX.XXo&-999999",
"9999999<=$X=-::<<;------1466666664----##----&XXXXX%X.XX*--999999",
"9999999-&XX&-:::<<::----;665662565;---------=&oX..$X..Xo+-999999",
"9999999=X.XO-----:<<<---461186<<:;---#-------;=*X..XX... O999999",
"9999999oXX$&--*&&*<<<<-:22-,66::-------------->*X.X..&OXXX999999",
"99999999%X$&=%oX$*-<-:::-<--12::--##----->-----X.O&X.+-==9999999",
"99999999%$Xo$XX.%-;<<:::>-#-:--:--------::-9#9999999999999999999",
"999999999999999999999999999----:::::----<99999999999999999999999",
"999999999999999999999999999:-:--=:<<----::-:---::999999999999999",
"999999999999999O-----#-->----::OX*------=-<:--->::----9999999999",
"999999999999...o*>---#@-----::-O.X*---*OXO;---:------->999999999",
"99999999999 ....o=----#--------O. X--OX..O-----:-------999999999",
"9999999999..    oo=------------+..X=o...X-------:---1:--99999999",
"9999999999..O+XO..+--------==--=XXXXXoX$=:---------:562:99999999",
"999999999O..o----*=<-----*XXXoOOX .X.$o&<9999-------166699999999",
"999999999=X.X--:;<<99999--O..XX.......$=999999--->---16699999999",
"999999999-+X.=->-<9999999:=o......$..X$X9999999---,,116699999999",
"999999999-@OX=--::9999999::-&X.......$..9999999--166666899999999",
"999999999--#=-----:99999--:::*X....o..%%&9999---;;46667899999999",
"999999999-----:--:---##----:-OX.......O*--:<<---;--;466669999999",
"999999999------------##---:=$.X.%......XO-:-:-----#>><6669999999",
"999999999->---<>-------#--=XXXX...X..X...&-;:-#----:>48869999999",
"999999999>>-22-<>-1<-----@XXX$Xoo...&$XX..&-<:=----:2686<9999999",
"999999999:->462--262-99999..o&==O.Xo--=&o.O-::---:-#,65,<9999999",
"999999999:::1661,6829999999=---;&XX+---999999-#--:--<2;-:9999999",
"999999999::>,67668619999999-:::-&XX=;-:9999999--->-----#99999999",
"999999999-<1;466765;99999:-:<<;-%X&>--:9999999---+=--#-#99999999",
"999999999-2655666665664-;:::::-:==;<:::<-999----@o*--#--99999999",
"999999999-<66666666331--:::::-::;:<<->----:-:-+-=.&-----99999999",
"9999999999-,246566663--=::::::-:;-:-------::<=XOOX&=OO=999999999",
"99999999999--;53666661--:::>::-:::::-:--:::<:;o..X..XO-999999999",
"9999999999999155353566,--::>::---::<<:>-::>:--=XX...O-9999999999",
"9999999999999999999;161------:::<<:;;:--:<<:<-+XXX..+99999999999",
"9999999999999999992-;,;----::-:>::-&*---::<<-&999999999999999999",
"9999999999999999-11----->------><:=X$--@::<<=O=99999999999999999",
"999999999999999--------->---##+O-;-$X*--<::----&X999999999999999",
"9999999999999--------------##-O X&=X.O-><------*O-O9999999999999",
"999999999999------------------#OXXXX.o+&O&=#---==-=&-99999999999",
"99999999999------------:-:>::--=X ...XX...O----:-->--:-999999999",
"9999999999*--#------------:=OOXOX ....99O*@-#--:----,2:-99999999",
"999999999.X&-#@OXO#----:---*X o.XX   .999---:-:---::561:-9999999",
"99999999=XX$+=O. X#------999*o XXX.  99999---::<:>:<675:-4999999",
"99999999-O..oo..o=----:99999--++X. . 999999-:-:<:--2885<66999999",
"99999999O*o...oo&----9999999---+X   .9999999--:<::-:688686999999",
"99999999oooX$$.$XXO999999999---XXX+..999999999;-::::678866999999",
"99999999o......XX99999999999--=XX+-O.999999999925566666666999999",
"9999999999XX.X%9999999999999::-o*-:=O999999999996666666666999999",
"9999999999999999999999999999::--=:--9999999999999666666869999999",
"9999999999999999999999999999999999999999999999999999999999999999",
"9999999999999999999999999999999999999999999999999999999999999999",
"9999999999999999999999999999999999999999999999999999999999999999",
"9999999999999999999999999999999999999999999999999999999999999999"
};
