/* XPM */
static char *result[] = {
/* columns rows colors chars-per-pixel */
"64 64 223 2 ",
"   c #2C87D6",
".  c #2D88D7",
"X  c #2D89D8",
"o  c #2E8AD8",
"O  c #2F8BD9",
"+  c #2F8CD9",
"@  c #308CD9",
"#  c #308DD9",
"$  c #308DDA",
"%  c #318DDA",
"&  c #318EDA",
"*  c #318FDA",
"=  c #318FDB",
"-  c #328FDA",
";  c #328FDB",
":  c #3390DA",
">  c #3290DB",
",  c #3390DB",
"<  c #3391DB",
"1  c #3392DB",
"2  c #3591DA",
"3  c #3491DB",
"4  c #3592DB",
"5  c #3692DB",
"6  c #3793DB",
"7  c #3391DC",
"8  c #3491DC",
"9  c #3492DC",
"0  c #3592DC",
"q  c #3493DC",
"w  c #3593DC",
"e  c #3693DC",
"r  c #3793DC",
"t  c #3594DD",
"y  c #3694DC",
"u  c #3794DC",
"i  c #3694DD",
"p  c #3695DD",
"a  c #3795DD",
"s  c #3796DE",
"d  c #3893DB",
"f  c #3894DC",
"g  c #3895DC",
"h  c #3995DC",
"j  c #3895DD",
"k  c #3896DD",
"l  c #3996DD",
"z  c #3997DD",
"x  c #3A96DC",
"c  c #3B96DC",
"v  c #3B97DC",
"b  c #3A96DD",
"n  c #3A97DD",
"m  c #3B97DD",
"M  c #3A97DE",
"N  c #3D97DC",
"B  c #3B98DD",
"V  c #3A98DE",
"C  c #3B98DE",
"Z  c #3C98DD",
"A  c #3D98DD",
"S  c #3C99DD",
"D  c #3D99DD",
"F  c #3E9ADD",
"G  c #3F9ADD",
"H  c #3C98DE",
"J  c #3C99DE",
"K  c #3D99DE",
"L  c #3E99DE",
"P  c #3C9ADE",
"I  c #3D9ADE",
"U  c #3E9ADE",
"Y  c #3F9ADE",
"T  c #3E9BDE",
"R  c #3F9BDE",
"E  c #3E9BDF",
"W  c #3F9CDF",
"Q  c #409BDE",
"!  c #409CDE",
"~  c #419CDE",
"^  c #419DDE",
"/  c #409CDF",
"(  c #419DDF",
")  c #429DDE",
"_  c #429DDF",
"`  c #429EDF",
"'  c #439EDF",
"]  c #439FDF",
"[  c #449FDF",
"{  c #45A0DF",
"}  c #439FE0",
"|  c #449FE0",
" . c #45A0E0",
".. c #45A1E0",
"X. c #46A1E0",
"o. c #47A2E0",
"O. c #48A3E0",
"+. c #49A3E0",
"@. c #49A4E0",
"#. c #49A4E1",
"$. c #4AA4E0",
"%. c #4AA4E1",
"&. c #4AA5E1",
"*. c #4BA5E1",
"=. c #4BA6E1",
"-. c #4AA6E2",
";. c #4BA6E2",
":. c #4CA6E1",
">. c #4CA7E1",
",. c #4CA7E2",
"<. c #4DA7E2",
"1. c #4EA8E1",
"2. c #4FA9E1",
"3. c #4DA8E2",
"4. c #4EA8E2",
"5. c #4FA8E2",
"6. c #4FA9E2",
"7. c #4FA9E3",
"8. c #4FAAE3",
"9. c #50A9E2",
"0. c #50AAE2",
"q. c #51AAE2",
"w. c #51ABE2",
"e. c #50AAE3",
"r. c #51AAE3",
"t. c #51ABE3",
"y. c #52ABE2",
"u. c #53ABE2",
"i. c #52ABE3",
"p. c #52ACE2",
"a. c #52ACE3",
"s. c #53ACE3",
"d. c #53ADE3",
"f. c #54ACE3",
"g. c #54ADE3",
"h. c #55ADE3",
"j. c #54AEE3",
"k. c #55AEE3",
"l. c #56AEE3",
"z. c #57AEE3",
"x. c #54ADE4",
"c. c #54AEE4",
"v. c #55AEE4",
"b. c #55AFE4",
"n. c #56AEE4",
"m. c #56AFE4",
"M. c #57AFE4",
"N. c #56AFE5",
"B. c #58AEE3",
"V. c #58AFE4",
"C. c #59AFE4",
"Z. c #57B0E4",
"A. c #57B0E5",
"S. c #58B0E4",
"D. c #59B1E4",
"F. c #58B0E5",
"G. c #58B1E5",
"H. c #59B1E5",
"J. c #5AB0E4",
"K. c #5BB0E4",
"L. c #5BB1E5",
"P. c #59B2E5",
"I. c #5AB2E5",
"U. c #5AB3E5",
"Y. c #5AB2E6",
"T. c #5AB3E6",
"R. c #5BB3E6",
"E. c #5CB1E5",
"W. c #5CB2E5",
"Q. c #5DB2E5",
"!. c #5EB3E5",
"~. c #5FB3E5",
"^. c #5DB3E6",
"/. c #5BB4E6",
"(. c #5CB4E6",
"). c #5EB4E6",
"_. c #60B3E5",
"`. c #61B3E5",
"'. c #60B4E6",
"]. c #61B4E6",
"[. c #60B5E6",
"{. c #62B5E6",
"}. c #63B5E6",
"|. c #62B6E7",
" X c #64B5E6",
".X c #65B6E6",
"XX c #65B6E7",
"oX c #67B6E6",
"OX c #66B7E7",
"+X c #67B7E7",
"@X c #68B7E6",
"#X c #67B8E7",
"$X c #67B9E7",
"%X c #68B8E7",
"&X c #69B8E7",
"*X c #69B9E7",
"=X c #6AB8E7",
"-X c #6AB9E7",
";X c #6BB9E7",
":X c #6CB9E7",
">X c #6CBAE7",
",X c #6AB9E8",
"<X c #6CBAE8",
"1X c #6DBAE8",
"2X c #6EBBE8",
"3X c #6FBBE8",
"4X c #6FBCE8",
"5X c #6EBCE9",
"6X c #70BBE8",
"7X c #71BBE8",
"8X c #71BCE8",
"9X c #71BDE9",
"0X c #72BCE8",
"qX c #72BDE8",
"wX c #72BCE9",
"eX c #72BDE9",
"rX c #73BDE9",
"tX c #73BEE9",
"yX c #74BDE9",
"uX c #74BEE9",
"iX c #75BEE9",
"pX c #75BFE9",
"aX c None",
/* pixels */
"aXaXaXaXaXaXaXaXaXaXaXaXaXaXaXaXaXaXaXaXaXaXaXaXaXaXaXaXaXaXaXaXaXaXaXaXaXaXaXaXaXaXaXaXaXaXaXaXaXaXaXaXaXaXaXaXaXaXaXaXaXaXaXaX",
"aXaXaXaXaXaXaXaXaXaXaXaXaXaXaXaXaXaXaXaXaXaXaXaXaXaXaXaXaXaXaXaXaXaXaXaXaXaXaXaXaXaXaXaXaXaXaXaXaXaXaXaXaXaXaXaXaXaXaXaXaXaXaXaX",
"aXaXaXaXaXaXaXaXaXaXaXaXaXaXaXaXaXaXaXaXaXaXaXaXaXaXaXaXaXaXaXaXaXaXaXaXaXaXaXaXaXaXaXaXaXaXaXaXaXaXaXaXaXaXaXaXaXaXaXaXaXaXaXaX",
"aXaXaXaXaXaXaXaXaXaXaXaXaXaXaXaXaXaXaXaXaXaXaXaXaXaXaXaXaXaXaXaXaXaXaXaXaXaXaXaXaXaXaXaXaXaXaXaXaXaXaXaXaXaXaXaXaXaXaXaXaXaXaXaX",
"aXaXaXaXaXaXaXaXaXaXaXaXaXaXaXaXaXaXaXaXaXaXaXaXaXaXaXaXaXaXaXaXaXaXaXaXaXaXaXaXaXaXaXaXaXaXaXaXaXaXaXaXaXaXaXaXaXaXaXaXaXaXaXaX",
"aXaXaXaXaXaXaXaXaXaXaXaXaXaXaXaXaXaXaXaXaXaXaXaXaXaXaXaXaXaXaXaXaXaXaXaXaXaXaXaXaXaXaXaXaXaXaXaXaXaXaXaXaXaXaXaXaXaXaXaXaXaXaXaX",
"aXaXaXaXaXaXaXaXaXaXaXaXaXaXaXaXaXaXaXaXaXaXaXaXaXaXaXaXaXaXaXaXaXaXaXaXaXaXaXaXaXaXaXaXaXaXaXaXaXaXaXaXaXaXaXaXaXaXaXaXaXaXaXaX",
"aXaXaXaXaXaXaXaXaXaXaXaXaXaXaXaXaXaXaXaXaXaXaXaXaXaXaXaXaXaXaXaXaXaXaXaXaXaXaXaXaXaXaXaXaXaXaXaXaXaXaXaXaXaXaXaXaXaXaXaXaXaXaXaX",
"aXaXaXaXaXaXaXaXaXaXaXaXaXaXaXaXaXaXaXaXaXaXaXaXaXaXaXaXaXaXaXaXaXaXaXaXaXaXaXaXaXaXaXaXaXaXaXaXaXaXaXaXaXaXaXaXaXaXaXaXaXaXaXaX",
"aXaXaXaXaXaXaXaXaXaXaXaXaXaXaXaXaXaXaXaXaXaXaXaXaXaXaXaXaXaXaXaXaXaXaXaXaXaXaXaXaXaXaXaXaXaXaXaXaXaXaXaXaXaXaXaXaXaXaXaXaXaXaXaX",
"aXaXaXaXaXaXaXaXaXaXaXaXaXaXaXaXaXaXaXaXuXuXrXaXaXaXaXaXaXaXaXaXaXaXaXg.v.m.F.P.aXaXaXaXaXaXaXaXaXaXaXaXaXaXaXaXaXaXaXaXaXaXaXaX",
"aXaXaXaXaXaXaXaXaXaXaXaXaXaXaXaXaXaXT.^.OX4XwXrXpXrXaXaXaXaXaXaXaXaXv.s.y.j.v.Z.m.aXaXaXaXaXaXaXaXaXaXaXaXaXaXaXaXaXaXaXaXaXaXaX",
"aXaXaXaXaXaXaXaXaXaXaXaXaXaXaXaXaXm.M.g.n.XXyXrXpXpXuXaXaXaXaXaXaXZ.j.s.v.M.G.G.P.aXaXaXaXaXaXaXaXaXaXaXaXaXaXaXaXaXaXaXaXaXaXaX",
"aXaXaXaXaXaXaXaXaXaXaXaXaXaXaXaXaXg.m.j.V.3X0XOX;XuX9XaXaXaXaXaXaXP.m.g.M.Z.A.m.P.aXaXaXaXaXaXaXaXaXaXaXaXaXaXaXaXaXaXaXaXaXaXaX",
"aXaXaXaXaXaXaXaXaXaXaXaXaXaXaXaX>.q.m.v.B.:X+XS.Q.6X1XaXaXaXaXaXaXG.m.m.Z.m.F.v.m.aXaXaXaXaXaXaXaXaXaXaXaXaXaXaXaXaXaXaXaXaXaXaX",
"aXaXaXaXaXaXaXaXaXaXaXaXaXaXaXaX1.2.s.s.y.E.S.m.n.oX&XaXaXaXaXaXm.v.v.m.m.a.m.Z.Z.aXaXaXaXaXaXaXaXaXaXaXaXaXaXaXaXaXaXaXaXaXaXaX",
"aXaXaXaXaXaXaXaXaXaXaXaXaXaXaXaX2.6.s.g.d.d.k.n.v.V.J.aXaXaXaXaXm.v.k.m.m.v.Z.Z.M.aXaXaXaXaXaXaXaXaXaXaXd 6.i.aXaXaXaXaXaXaXaXaX",
"aXaXaXaXaXaXaXaXaXaXaXaXaXaXaXaXa.s.k.m.A.m.k.g.M.m.g.aXaXaXaXaXv.m.M.G.H.Z.v.k.d.s.aXaXaXaXaXaXaXaXv @ 2 6.m.m.aXaXaXaXaXaXaXaX",
"aXaXaXaXaXaXaXaX; i C =.v.F.Z.m.m.G.Z.Z.G.v.v.m.m.G.M.aXaXaXaXaXb.v.F.Z.g.g.a.w.0.s.aXaXaXaXaXR.m.s.*.y _ s.m.k.g.aXaXaXaXaXaXaX",
"aXaXaXaXaX, , , > n &.Z.G.I.G.M.g.G.G.m.v.g.k.v.M.G.b.aXaXaXaXaXa.a.k.v.m.Z.v.w.g.m.aXaXaXv.Z.F.v.s.d.#.7.v.m.s.a.aXaXaXaXaXaXaX",
"aXaXaXaX7 & - & < 3 m 5.H.G.g.v.k.Z.m.v.Z.g.Z.M.Z.G.m.aXaXaXaXaXd.v.n.v.m.s.#.:.s.k.aXG.m.g.d.m.Z.m.g.Z.F.c.v.s.1.2.aXaXaXaXaXaX",
"aXaXaXaX9 < > , q 9 - g <.m.g.m.G.m.g.v.M.g.v.H.Z.G.Z.m.aXaXaXaXa.Z.F.i. .z w k 4.Z.n.Z.m.s.v.v.Z.Z.F.G.v.i.s.g.h. XaXaXaXaXaXaX",
"aXaXaXaXi t 9 & 9 t , * y *.v.k.v.v.k.v.F.M.m.Z.m.A.G.T.aXaXaXaX*.j.4.K 9 9 < U w.G.m.k.s.s.s.g.Z.d.v.m.a.g.w.d.{.8XaXaXaXaXaXaX",
"aXaXaXaXi - - r g < , , $ f q.k.k.m.m.G.G.Z.k.g.s.s.s.b.aXaXaXaX] [ y , & ; u 8.g.p.m.n.g.m.s.q.i.s.Z.f.u.h.d.m.&X8XaXaXaXaXaXaX",
"aXaXaXaXy & > I *.b e 3 - - O.Z.m.g.v.G.k.g.d.0.1.q.a.w.aXaXaXaXa a 9 < > % Q m.G.m.v.P.I.F.v.w.0.g.g.`.:X+XV.M.<XrXaXaXaXaXaXaX",
"aXaXaXaXU , ; e 6.s.6.*.T j o.m.g.a.a.v.m.Z...x h J Y G aXaXaXaX9 w 9 9 < h 9.Z.m.M.F.U.P.F.m.v.y.s.v.'.8XtX=XJ.%XaXaXaXaXaXaXaX",
"aXaXaXaXaX4 - - O.M.G.G.v.d.v.m.v.k.M.n.k.S.o., + * > & aXaXaXaX9 q 3 ; 4 @.g.d.q.g.G.G.Z.m.m.g.k.m.G.H.,XrXqX<XaXaXaXaXaXaXaXaX",
"aXaXaXaXaXg 9 < R k.G.m.v.v.k.k.k.v.G.A.Z.G.A.( . o > - aXaXaXaX9 w - % 3 f 6 u k n +.m.Z.g.m.m.v.F.I.H.^.4XpXaXaXaXaXaXaXaXaXaX",
"aXaXaXaXaXaXaX; x w.g.m.M.j.v.v.s.d.m.G.I.G.m.t.c   + , aXaXaXaX9 < & ; > & & < > : #.m.F.m.i.m._.-X2X5XaXaXaXaXaXaXaXaXaXaXaXaX",
"aXaXaXaXaXaXaXaXaXaXaXaXaXaXaXaXaXy.m.F.G.R.P.Z.q.G 5 9 aXaXaXaX9 , q < - 9 9 y v o.d.g.Z.G.m.H.%XpXaXaXaXaXaXaXaXaXaXaXaXaXaXaX",
"aXaXaXaXaXaXaXaXaXaXaXaXaXaXaXaXaXZ.H.H.G.T.I.v.q.a.<.j aXaXaXaXq > 9 0 l ( ..<.i.g.v.m.Z.A.G.aXaXaXaXaXaXaXaXaXaXaXaXaXaXaXaXaX",
"aXaXaXaXaXaXaXaXaXaXaXaXaXaXaXaXaXH.Z.F.F.m.k.j.c.=.H p aXaXaXaXaX9 9 w j o.g.Z.F.v.k.aXaXaXaXaXaXaXaXaXaXaXaXaXaXaXaXaXaXaXaXaX",
"aXaXaXaXaXaXaXaXaXaXaXaXaXaXaXaXaXm.v.G.G.G.g.w. .u 9 , aXaXaXaXaX< < 9 < 3 Q a.v.v.g.aXaXaXaXaXaXaXaXaXaXaXaXaXaXaXaXaXaXaXaXaX",
"aXaXaXaXaXaXaXaXaXaXaXaXaXaXaXaXaXP.G.U.I.G.g.~ 3 w t # aXaXaXaXaXq < < & O , J 0.G.H.aXaXaXaXaXaXaXaXaXaXaXaXaXaXaXaXaXaXaXaXaX",
"aXaXaXaXaXaXaXaXaXaXaXaXaXaXaXaXaXP.R.(.I.m.{ 0 & < < X aXaXaXaXaXb A w < ; < 9 U v.G.aXaXaXaXaXaXaXaXaXaXaXaXaXaXaXaXaXaXaXaXaX",
"aXaXaXaXaXaXaXaXaXaXaXaXaXaXaXaXaXT.I.P.m.6.0 = > y x N aXaXaXaX> ( g.4...W k a i <.Z.aXaXaXaXaXaXaXaXaXaXaXaXaXaXaXaXaXaXaXaXaX",
"aXaXaXaXaXaXaXaXaXaXaXaXaXaXaXaXaXY.G.m.m.i.^ Z ' 3.2.g.aXaXaXaX< O.P.I.F.s.a.3.-.N.T.aXaXaXaXaXaXaXaXaXaXaXaXaXaXaXaXaXaXaXaXaX",
"aXaXaXaXaXaXaXaXaXaXaXaXaXaXaXaXaXA.M.Z.v.a.w.v.g.g.s.0.aXaXaXaXF t.I.P.F.g.Z.H.R.R.aXaXaXaXaXaXaXaXaXaXaXaXaXaXaXaXaXaXaXaXaXaX",
"aXaXaXaXaXaXaXaXaXaXaXaXaXaXaXaXaX].#XL.m.a.m.Z.M.j.v.a.aXaXaXaXg.Z.G.G.P.H.P.Z.P./.aXaXaXaXaXaXaXaXaXaXaXP.v.s.aXaXaXaXaXaXaXaX",
"aXaXaXaXaXaXaXaXaXaXaXaXaXaXaXaXaXrXtX~.v.v.m.v.M.m.m.v.aXaXaXaXv.m.g.g.Z.G.I.Z.Z.G.aXaXaXaXaXaXaXaXaXaXA.Z.g.j.g.v.aXaXaXaXaXaX",
"aXaXaXaXaXaXaXaXaXaXaXaXaXaXaXaXaX9X*XD.G.G.v.g.G.Z.g.g.aXaXaXaXv.v.g.Z.Z.Z.m.A.v.g.aXaXaXaXaXaXaXaXaXd.m.v.d.v.M.v.aXaXaXaXaXaX",
"aXaXaXaXaXaXaXaXaXaXaXaXaXaXaXaXaXH.m.m.P.g.a.Z.G.Z.F.Z.aXaXaXaXA.m.m.P.F.k.s.v.m.Z.aXaXaXaXaXaXaXaXM.4.,.s.m.m.m.m.aXaXaXaXaXaX",
"aXaXaXaXaXaXaXaXaXaXaXaXaXaXaXaXaX].g.g.v.a.c.Y.T.F.Z.m.aXaXaXaXA.A.Z.G.G.H.T.P.v.m.aXaXaXaXaXaXaXaX~ u e $.m.v.v.m.Z.aXaXaXaXaX",
"aXaXaXaXaXaXaXaXaXaXaXaXaXaX6X6X7X>XC.i.i.k.F.H.H.Z.Z.v.aXaXaXaXm.v.k.v.Z.H.F.v.j.v.aXaXaXaXaXaXaXaXO > } v.Z.Z.G.G.G.aXaXaXaXaX",
"aXaXaXaXaXaXaXaXaXaXaX&X@X6X@X;XwXrXoXk.v.M.g.F.G.m.m.aXaXaXaXaXm.v.g.k.m.H.v.g.m.m.v.aXaXaXaXaXaXq 1 D s.G.G.H.Z.H.P.aXaXaXaXaX",
"aXaXaXaXaXaXaXaX$XiX9XK. XwXOXW..X:X@Xh.g.g.a.g.v.m.v.aXaXaXaXaXg.i.g.d.v.Z.g.v.Z.A.m.g.o.j > , w p s E  .9.Z.Z.m.F.A.aXaXaXaXaX",
"aXaXaXaXaXaXG.G.#XeX}.g.!.rX&Xm.g.z.C.v.s.0.v.j.m.s.d.aXaXaXaXaX) B e.g.g.g.v.j.d.g.g.X.w 3 u w 8 w t w q P t.m.G.Z.v.aXaXaXaXaX",
"aXaXaXaXaXaXI.P.[.|.G.v.M.-X.Xm.v.a.a.A.g.q.j.m.v.9.s.aXaXaXaXaXaX, ` M.k.d.g.Z.m.Z.r.m n ` ! 9 < - u o.] ;.x.F.H.P.m.aXaXaXaXaX",
"aXaXaXaXaXj.m.G.G.G.P.M.k.V.l.j.m.g.s.m.Z.g.j.Z.a.a.v.aXaXaXaXaXaX< z t.g.v.v.m.Z.g.a.w.s.s.Z 9 b - e r.M.m.v.m.F.P.Z.aXaXaXaXaX",
"aXaXaXaXaXH.m.k.d.m.P.G.A.g.v.m.M.m.v.Z.G.j.v.v.q.g.v.aXaXaXaXaXaX< w =.m.G.G.A.k.i.s.g.k.i.b S =.4 : 4.k.d.k.g.k.m.m.aXaXaXaXaX",
"aXaXaXaXaXaXP.k.k.F.R.F.H.M.v.m.v.m.m.Z.P.Z.d.d.k.Z.G.aXaXaXaXaXaXaXw  .4.#.o.X.5.d.g.k.g.s.` :.a.U 5 4.v.m.G.Z.m.m.aXaXaXaXaXaX",
"aXaXaXaXaXaXT.G.j.m.R.H.Z.Z.v.v.g.v.m.Z.Z.m.g.g.A.F.aXaXaXaXaXaXaXaXq M V > - > x 0.v.v.c.s.0.0.s.r.%.k.m.H.Z.M.Z.d.aXaXaXaXaXaX",
"aXaXaXaXaXaXaXF.g.m.H.Z.m.s.m.v.g.k.v.m.Z.m.m.m.A.aXaXaXaXaXaXaXaXaXaX9 t < @ u / s.v.m.v.i.1.q.m.P.M.v.Z.H.v.m.G.aXaXaXaXaXaXaX",
"aXaXaXaXaXaXaXA.g.y.k.0.o.=.m.m.v.g.g.Z.T.v.aXaXaXaXaXaXaXaXaXaXaXaXaXaXq l | s.v.n.k.g.a.w.w.g.G.Z.m.).&X].k.v.aXaXaXaXaXaXaXaX",
"aXaXaXaXaXaXaXaXaXaXaXL 9 aXaXaXaXaXaXaXaXaXaXaXaXaXaXaXaXaXaXaXaXaXaXaXaXaXaXc.m.s.s.d.s.a.y.0.v.v.M.=X0X&Xs.aXaXaXaXaXaXaXaXaX",
"aXaXaXaXaXaXaXaXaXaXaXaXaXaXaXaXaXaXaXaXaXaXaXaXaXaXaXaXaXaXaXaXaXaXaXaXaXaXaXaXaXaXaXaXaXaXaXaXaXaXaXaXaXaXaXaXaXaXaXaXaXaXaXaX",
"aXaXaXaXaXaXaXaXaXaXaXaXaXaXaXaXaXaXaXaXaXaXaXaXaXaXaXaXaXaXaXaXaXaXaXaXaXaXaXaXaXaXaXaXaXaXaXaXaXaXaXaXaXaXaXaXaXaXaXaXaXaXaXaX",
"aXaXaXaXaXaXaXaXaXaXaXaXaXaXaXaXaXaXaXaXaXaXaXaXaXaXaXaXaXaXaXaXaXaXaXaXaXaXaXaXaXaXaXaXaXaXaXaXaXaXaXaXaXaXaXaXaXaXaXaXaXaXaXaX",
"aXaXaXaXaXaXaXaXaXaXaXaXaXaXaXaXaXaXaXaXaXaXaXaXaXaXaXaXaXaXaXaXaXaXaXaXaXaXaXaXaXaXaXaXaXaXaXaXaXaXaXaXaXaXaXaXaXaXaXaXaXaXaXaX",
"aXaXaXaXaXaXaXaXaXaXaXaXaXaXaXaXaXaXaXaXaXaXaXaXaXaXaXaXaXaXaXaXaXaXaXaXaXaXaXaXaXaXaXaXaXaXaXaXaXaXaXaXaXaXaXaXaXaXaXaXaXaXaXaX",
"aXaXaXaXaXaXaXaXaXaXaXaXaXaXaXaXaXaXaXaXaXaXaXaXaXaXaXaXaXaXaXaXaXaXaXaXaXaXaXaXaXaXaXaXaXaXaXaXaXaXaXaXaXaXaXaXaXaXaXaXaXaXaXaX",
"aXaXaXaXaXaXaXaXaXaXaXaXaXaXaXaXaXaXaXaXaXaXaXaXaXaXaXaXaXaXaXaXaXaXaXaXaXaXaXaXaXaXaXaXaXaXaXaXaXaXaXaXaXaXaXaXaXaXaXaXaXaXaXaX",
"aXaXaXaXaXaXaXaXaXaXaXaXaXaXaXaXaXaXaXaXaXaXaXaXaXaXaXaXaXaXaXaXaXaXaXaXaXaXaXaXaXaXaXaXaXaXaXaXaXaXaXaXaXaXaXaXaXaXaXaXaXaXaXaX",
"aXaXaXaXaXaXaXaXaXaXaXaXaXaXaXaXaXaXaXaXaXaXaXaXaXaXaXaXaXaXaXaXaXaXaXaXaXaXaXaXaXaXaXaXaXaXaXaXaXaXaXaXaXaXaXaXaXaXaXaXaXaXaXaX"
};
